<svg xmlns="http://www.w3.org/2000/svg" viewBox="0 0 64 64">
  <defs>
    <linearGradient id="bg" x1="0" y1="0" x2="1" y2="1">
      <stop offset="0%" stop-color="#4F46E5"/>
      <stop offset="100%" stop-color="#10B981"/>
    </linearGradient>
  </defs>

  <!-- Rounded square — matches the platform's logo-icon style (border-radius ~1rem on 64px) -->
  <rect width="64" height="64" rx="13" fill="url(#bg)"/>

  <!--
    Font Awesome 6 Free — "handshake-angle" (fa-hands-helping equivalent)
    viewBox 0 0 640 512  →  scaled to ~38 × 30.4 px, centred in the 64 × 64 box.
    Scale = 38 / 640 = 0.059375
    Translate: x = (64 − 38) / 2 = 13,  y = (64 − 30.4) / 2 ≈ 16.8
  -->
  <g transform="translate(13, 16.8) scale(0.059375)" fill="white">
    <path d="M544 248l0 3.3 69.7-69.7c21.9-21.9 21.9-57.3 0-79.2L535.6 24.4c-21.9-21.9-57.3-21.9-79.2 0L416.3 64.5c-2.7-.3-5.5-.5-8.3-.5L296 64c-37.1 0-67.6 28-71.6 64l-.4 0 0 120c0 22.1 17.9 40 40 40s40-17.9 40-40l0-72c0 0 0-.1 0-.1l0-15.9 16 0 136 0c0 0 0 0 .1 0l7.9 0c44.2 0 80 35.8 80 80l0 8zM336 192l0 56c0 39.8-32.2 72-72 72s-72-32.2-72-72l0-118.6c-35.9 6.2-65.8 32.3-76 68.2L99.5 255.2 26.3 328.4c-21.9 21.9-21.9 57.3 0 79.2l78.1 78.1c21.9 21.9 57.3 21.9 79.2 0l37.7-37.7c.9 0 1.8 .1 2.7 .1l160 0c26.5 0 48-21.5 48-48c0-5.6-1-11-2.7-16l2.7 0c26.5 0 48-21.5 48-48c0-12.8-5-24.4-13.2-33c25.7-5 45.1-27.6 45.2-54.8l0-.4c-.1-30.8-25.1-55.8-56-55.8c0 0 0 0 0 0l-120 0z"/>
  </g>
</svg>
